name Walk7.mot
datacolumns 19
datarows 20
range 2.66000000 2.67900000
endheader

                time	   L_ground_force_vx	   L_ground_force_vy	   L_ground_force_vz	   L_ground_force_px	   L_ground_force_py	   L_ground_force_pz	   R_ground_force_vx	   R_ground_force_vy	   R_ground_force_vz	   R_ground_force_px	   R_ground_force_py	   R_ground_force_pz	   L_ground_torque_x	   L_ground_torque_y	   L_ground_torque_z	   R_ground_torque_x	   R_ground_torque_y	   R_ground_torque_z	
          2.66000000	         -3.19752269	         79.43492598	         -4.44707010	          0.01798453	          0.00000000	         -0.01067073	         -0.00000000	          0.00000000	          0.00000000	          0.00000000	          0.00000000	          0.00000000	          0.00000000	          0.12633289	          0.00000000	          0.00000000	          0.00000000	          0.00000000	
          2.66100000	         -4.02919001	         87.39791570	         -4.78680233	          0.00246804	          0.00000000	         -0.01332257	         -0.00000000	          0.00000000	          0.00000000	          0.00000000	          0.00000000	          0.00000000	          0.00000000	          0.14209307	          0.00000000	          0.00000000	          0.00000000	          0.00000000	
          2.66200000	         -4.91518053	         95.68727490	         -5.12276388	         -0.01297137	          0.00000000	         -0.01598916	         -0.00000000	          0.00000000	         -0.00000000	          0.00000000	          0.00000000	          0.00000000	          0.00000000	          0.15833736	          0.00000000	          0.00000000	          0.00000000	          0.00000000	
          2.66300000	         -5.85701774	        104.30021818	         -5.45354841	         -0.02829533	          0.00000000	         -0.01866462	         -0.00000000	          0.00000000	         -0.00000000	          0.00000000	          0.00000000	          0.00000000	          0.00000000	          0.17505203	          0.00000000	          0.00000000	          0.00000000	          0.00000000	
          2.66400000	         -6.85614797	        113.23246427	         -5.77766969	         -0.04346529	          0.00000000	         -0.02134282	         -0.00000000	          0.00000000	         -0.00000000	          0.00000000	          0.00000000	          0.00000000	          0.00000000	          0.19222089	          0.00000000	          0.00000000	          0.00000000	          0.00000000	
          2.66500000	         -7.91392571	        122.47810173	         -6.09355643	         -0.05844224	          0.00000000	         -0.02401734	         -0.00000000	          0.00000000	         -0.00000000	         -0.00000000	          0.00000000	         -0.00000000	          0.00000000	          0.20982501	          0.00000000	          0.00000000	          0.00000000	          0.00000000	
          2.66600000	         -9.03159960	        132.02946294	         -6.39955119	         -0.07318687	          0.00000000	         -0.02668147	         -0.00000000	          0.00000000	         -0.00000000	         -0.00000000	          0.00000000	         -0.00000000	          0.00000000	          0.22784254	          0.00000000	          0.00000000	          0.00000000	          0.00000000	
          2.66700000	        -10.21030265	        141.87704052	         -6.69392303	         -0.08766091	          0.00000000	         -0.02932835	         -0.00000000	          0.00000000	         -0.00000000	         -0.00000000	          0.00000000	         -0.00000000	          0.00000000	          0.24624888	          0.00000000	          0.00000000	          0.00000000	          0.00000000	
          2.66800000	        -11.45104572	        152.00945573	         -6.97489533	         -0.10182916	          0.00000000	         -0.03195123	         -0.00000000	          0.00000000	         -0.00000000	         -0.00000000	          0.00000000	         -0.00000000	          0.00000000	          0.26501689	          0.00000000	          0.00000000	          0.00000000	          0.00000000	
          2.66900000	        -12.75470757	        162.41344446	         -7.24067623	         -0.11566073	          0.00000000	         -0.03454366	         -0.00000000	          0.00000000	         -0.00000000	         -0.00000000	          0.00000000	         -0.00000000	          0.00000000	          0.28411683	          0.00000000	          0.00000000	          0.00000000	          0.00000000	
          2.67000000	        -14.12201747	        173.07384145	         -7.48948425	         -0.12912906	          0.00000000	         -0.03709954	         -0.00000000	          0.00000000	         -0.00000000	         -0.00000000	          0.00000000	         -0.00000000	          0.00000000	          0.30351578	          0.00000000	          0.00000000	          0.00000000	          0.00000000	
          2.67100000	        -15.55353199	        183.97357861	         -7.71957118	         -0.14221160	          0.00000000	         -0.03961317	         -0.00000000	          0.00000000	         -0.00000000	         -0.00000000	          0.00000000	         -0.00000000	          0.00000000	          0.32317680	          0.00000000	          0.00000000	          0.00000000	          0.00000000	
          2.67200000	        -17.04960687	        195.09371680	         -7.92924499	         -0.15488941	          0.00000000	         -0.04207930	         -0.00000000	          0.00000000	         -0.00000000	         -0.00000000	          0.00000000	         -0.00000000	          0.00000000	          0.34305812	          0.00000000	          0.00000000	          0.00000000	          0.00000000	
          2.67300000	        -18.61036434	        206.41352722	         -8.11689254	         -0.16714693	          0.00000000	         -0.04449312	         -0.00000000	         -0.00000000	         -0.00000000	         -0.00000000	          0.00000000	         -0.00000000	          0.00000000	          0.36311257	          0.00000000	          0.00000000	          0.00000000	          0.00000000	
          2.67400000	        -20.23565565	        217.91063910	         -8.28100173	         -0.17897163	          0.00000000	         -0.04685030	         -0.00000000	         -0.00000000	         -0.00000000	         -0.00000000	          0.00000000	         -0.00000000	          0.00000000	          0.38328725	          0.00000000	          0.00000000	          0.00000000	          0.00000000	
          2.67500000	        -21.92501922	        229.56126641	         -8.42018132	         -0.19035377	          0.00000000	         -0.04914701	         -0.00000000	         -0.00000000	         -0.00000000	         -0.00000000	          0.00000000	         -0.00000000	          0.00000000	          0.40352343	          0.00000000	          0.00000000	          0.00000000	          0.00000000	
          2.67600000	        -23.67763576	        241.34051710	         -8.53317661	         -0.20128621	          0.00000000	         -0.05137988	         -0.00000000	         -0.00000000	         -0.00000000	         -0.00000000	          0.00000000	         -0.00000000	          0.00000000	          0.42375659	          0.00000000	          0.00000000	          0.00000000	          0.00000000	
          2.67700000	        -25.49228283	        253.22277532	         -8.61887846	         -0.21176415	          0.00000000	         -0.05354602	         -0.00000000	         -0.00000000	         -0.00000000	         -0.00000000	          0.00000000	         -0.00000000	          0.00000000	          0.44391652	          0.00000000	          0.00000000	          0.00000000	          0.00000000	
          2.67800000	        -27.36729303	        265.18213184	         -8.67632439	         -0.22178499	          0.00000000	         -0.05564301	         -0.00000000	         -0.00000000	         -0.00000000	         -0.00000000	          0.00000000	         -0.00000000	          0.00000000	          0.46392748	          0.00000000	          0.00000000	          0.00000000	          0.00000000	
          2.67900000	        -29.30052088	        277.19282695	         -8.70469120	         -0.23134809	          0.00000000	         -0.05766884	         -0.00000000	         -0.00000000	         -0.00000000	         -0.00000000	          0.00000000	         -0.00000000	          0.00000000	          0.48370881	          0.00000000	          0.00000000	          0.00000000	          0.00000000	
